<?xml version="1.0" encoding="utf-8"?>
<!-- Generator: Adobe Illustrator 21.0.0, SVG Export Plug-In . SVG Version: 6.00 Build 0)  -->
<svg version="1.1" xmlns="http://www.w3.org/2000/svg" xmlns:xlink="http://www.w3.org/1999/xlink" x="0px" y="0px"
	 viewBox="0 0 500 500" style="enable-background:new 0 0 500 500;" xml:space="preserve">
<style type="text/css">
	.st0{opacity:0.2;fill:#505050;}
	.st1{opacity:0.2;fill:#F09C2E;}
	.st2{fill:#F9A846;}
	.st3{fill:#FFFFFF;}
	.st4{fill:#DD8C2A;}
	.st5{fill:#F09C2E;}
	.st6{fill:#505050;}
	.st7{fill:#232323;}
	.st8{fill:#FAF0FC;}
	.st9{fill:#727271;}
	.st10{opacity:0.5;fill:#F09C2E;}
	.st11{fill:#F6B6A6;}
	.st12{fill:#36203A;}
	.st13{opacity:0.52;fill:#D86C56;}
	.st14{fill:#DD988A;}
	.st15{opacity:0.33;fill:#44004E;}
	.st16{fill:#F99345;}
	.st17{fill:#986AA3;}
	.st18{opacity:0.4;fill:#232323;}
	.st19{fill:#050505;}
	.st20{fill:#00B99D;}
	.st21{fill:#00304D;}
	.st22{opacity:0.3;fill:#383838;}
	.st23{fill:#FFB072;}
	.st24{clip-path:url(#SVGID_2_);fill:#232323;}
	.st25{clip-path:url(#SVGID_2_);fill:#FFFFFF;}
	.st26{clip-path:url(#SVGID_4_);fill:#232323;}
	.st27{clip-path:url(#SVGID_4_);fill:#FFFFFF;}
	.st28{fill:#3F3F3F;}
	.st29{fill:#3E2344;}
	.st30{fill-rule:evenodd;clip-rule:evenodd;fill:#FFB072;}
	.st31{fill:#E57E55;}
	.st32{fill:#FD6141;}
	.st33{opacity:0.5;fill:#E57E55;}
	.st34{opacity:0.5;fill:#A1ABAD;}
	.st35{fill:#DD4026;}
	.st36{fill:none;stroke:#552F5E;stroke-width:0.8298;stroke-miterlimit:10;}
	.st37{fill-rule:evenodd;clip-rule:evenodd;fill:url(#SVGID_5_);}
	.st38{opacity:0.5;}
	.st39{opacity:0.4;fill-rule:evenodd;clip-rule:evenodd;fill:url(#SVGID_6_);}
	.st40{clip-path:url(#SVGID_9_);}
	.st41{fill:#294054;}
	.st42{fill:#33424F;}
	.st43{fill:#919191;}
	.st44{fill-rule:evenodd;clip-rule:evenodd;fill:#919191;}
	.st45{fill:url(#SVGID_10_);}
	.st46{opacity:0.8;}
	.st47{fill:url(#SVGID_11_);}
	.st48{opacity:0.4;fill-rule:evenodd;clip-rule:evenodd;fill:url(#SVGID_12_);}
	.st49{fill:url(#SVGID_13_);}
	.st50{fill:url(#SVGID_14_);}
	.st51{fill:url(#SVGID_15_);}
	.st52{clip-path:url(#SVGID_17_);}
	.st53{opacity:0.7;clip-path:url(#SVGID_19_);fill-rule:evenodd;clip-rule:evenodd;fill:#EBEBEB;}
	.st54{fill-rule:evenodd;clip-rule:evenodd;fill:#294054;}
	.st55{fill-rule:evenodd;clip-rule:evenodd;fill:url(#SVGID_20_);}
	.st56{fill-rule:evenodd;clip-rule:evenodd;fill:url(#SVGID_21_);}
	.st57{clip-path:url(#SVGID_24_);}
	.st58{fill:url(#SVGID_25_);}
	.st59{fill:url(#SVGID_26_);}
	.st60{fill:url(#SVGID_35_);}
	.st61{fill:url(#SVGID_44_);}
	.st62{fill:url(#SVGID_53_);}
	.st63{fill:url(#SVGID_62_);}
	.st64{fill:url(#SVGID_71_);}
	.st65{fill:url(#SVGID_80_);}
	.st66{fill:url(#SVGID_89_);}
	.st67{fill:url(#SVGID_98_);}
	.st68{fill:url(#SVGID_107_);}
	.st69{fill:url(#SVGID_116_);}
	.st70{fill:url(#SVGID_125_);}
	.st71{fill:url(#SVGID_134_);}
	.st72{fill:url(#SVGID_143_);}
	.st73{fill:#F0F0F0;}
	.st74{fill:url(#SVGID_152_);}
	.st75{fill:url(#SVGID_153_);}
	.st76{fill:url(#SVGID_154_);}
	.st77{clip-path:url(#SVGID_157_);}
	.st78{fill:#939799;}
	.st79{opacity:0.1;}
	.st80{fill:#FEFEFE;}
	.st81{fill:#FCFCFC;}
	.st82{fill:#FBFBFB;}
	.st83{fill:#F9F9F9;}
	.st84{fill:#F8F8F8;}
	.st85{fill:#F6F6F6;}
	.st86{fill:#F5F5F5;}
	.st87{fill:#F3F3F3;}
	.st88{fill:#F2F2F2;}
	.st89{fill:#EFEFEF;}
	.st90{fill:#EEEEEE;}
	.st91{fill:#ECECEC;}
	.st92{fill:#EBEBEB;}
	.st93{fill:#E9E9E9;}
	.st94{fill:#E8E8E8;}
	.st95{fill:#E6E6E6;}
	.st96{fill:#E5E5E5;}
	.st97{fill:#E3E3E3;}
	.st98{fill:#E2E2E2;}
	.st99{fill:#E1E1E1;}
	.st100{fill:#DFDFDF;}
	.st101{fill:#DEDEDE;}
	.st102{fill:#DCDCDC;}
	.st103{fill:#DBDBDB;}
	.st104{fill:#D9D9D9;}
	.st105{fill:#D8D8D8;}
	.st106{fill:#D6D6D6;}
	.st107{fill:#D5D5D5;}
	.st108{fill:#D3D3D3;}
	.st109{fill:#D2D2D2;}
	.st110{fill:#D1D1D1;}
	.st111{fill:#CFCFCF;}
	.st112{fill:#CECECE;}
	.st113{fill:#CCCCCC;}
	.st114{fill:#CBCBCB;}
	.st115{fill:#C9C9C9;}
	.st116{fill:#C8C8C8;}
	.st117{fill:#C6C6C6;}
	.st118{fill:#C5C5C5;}
	.st119{fill:#C4C4C4;}
	.st120{fill:#C2C2C2;}
	.st121{fill:#C1C1C1;}
	.st122{fill:#BFBFBF;}
	.st123{fill:#BEBEBE;}
	.st124{fill:#BCBCBC;}
	.st125{fill:#BBBBBB;}
	.st126{fill:#B9B9B9;}
	.st127{fill:#B8B8B8;}
	.st128{fill:#B6B6B6;}
	.st129{fill:#B5B5B5;}
	.st130{opacity:0.4;}
	.st131{fill:url(#SVGID_158_);}
	.st132{opacity:0.6;}
	.st133{fill:url(#SVGID_159_);}
	.st134{fill:url(#SVGID_160_);}
	.st135{opacity:0.7;}
	.st136{fill:url(#SVGID_161_);}
	.st137{fill:url(#SVGID_162_);}
	.st138{clip-path:url(#SVGID_165_);}
	.st139{fill:#454545;}
	.st140{fill:url(#SVGID_166_);}
	.st141{fill:url(#SVGID_167_);}
	.st142{fill:url(#SVGID_168_);}
	.st143{fill:url(#SVGID_169_);}
	.st144{fill:url(#SVGID_170_);}
	.st145{fill:#E82931;}
	.st146{fill:url(#SVGID_171_);}
	.st147{opacity:0.7;fill:url(#SVGID_172_);}
	.st148{fill-rule:evenodd;clip-rule:evenodd;fill:url(#SVGID_173_);}
	.st149{clip-path:url(#SVGID_175_);}
	.st150{clip-path:url(#SVGID_178_);}
	.st151{fill:url(#SVGID_179_);}
	.st152{clip-path:url(#SVGID_182_);}
	.st153{clip-path:url(#SVGID_185_);}
	.st154{fill:#3C3D32;}
	.st155{fill:#A7A9AC;}
	.st156{fill:#D1D3D4;}
	.st157{opacity:0.5;fill:#A7A9AC;}
	.st158{opacity:0.8;fill:#A7A9AC;}
	.st159{fill:#6D6E71;}
	.st160{opacity:0.5;fill:#6D6E71;}
	.st161{fill:#929498;}
	.st162{fill:#262626;}
	.st163{fill:#141414;}
	.st164{fill:#AE5303;}
	.st165{opacity:0.4;fill:#A60722;}
	.st166{fill:#603B1D;}
	.st167{fill:#DD8B31;}
	.st168{opacity:0.3;}
	.st169{fill:#808285;}
	.st170{fill:#939598;}
	.st171{fill:#4A474C;}
	.st172{fill:#EB7558;}
	.st173{opacity:0.3;fill:#313133;}
	.st174{fill:#DBDCDE;}
	.st175{fill:#EFB48C;}
	.st176{opacity:0.2;fill:#DE2728;}
	.st177{fill:#F5CBA7;}
	.st178{fill:#1E1E1E;}
	.st179{fill:#7B3F32;}
	.st180{opacity:0.4;fill:#CC6448;}
	.st181{fill:#F7CDA9;}
	.st182{fill:#6D5F55;}
	.st183{opacity:0.5;fill:#6D5F55;}
	.st184{fill:#FFE7C7;}
	.st185{opacity:0.4;fill:#EFBE83;}
	.st186{fill:#8BCAC3;}
	.st187{opacity:0.7;fill:#8BCAC3;}
	.st188{opacity:0.5;fill:#8BCAC3;}
	.st189{fill:#94ABA8;}
	.st190{fill:#5A5B54;}
	.st191{opacity:0.5;fill:#5A5B54;}
	.st192{opacity:0;}
	.st193{opacity:1.818182e-02;}
	.st194{opacity:3.636364e-02;}
	.st195{opacity:5.454545e-02;}
	.st196{opacity:7.272727e-02;}
	.st197{opacity:9.090909e-02;}
	.st198{opacity:0.1091;}
	.st199{opacity:0.1273;}
	.st200{opacity:0.1455;}
	.st201{opacity:0.1636;}
	.st202{opacity:0.1818;}
	.st203{opacity:0.2;}
	.st204{fill:url(#SVGID_186_);}
	.st205{fill:url(#SVGID_187_);}
	.st206{fill:url(#SVGID_188_);}
	.st207{fill:url(#SVGID_189_);}
	.st208{fill:url(#SVGID_190_);}
	.st209{fill:url(#SVGID_191_);}
	.st210{fill:url(#SVGID_192_);}
	.st211{fill:url(#SVGID_193_);}
	.st212{fill:#E6E7E8;}
	.st213{fill:url(#SVGID_194_);}
	.st214{fill:url(#SVGID_195_);}
	.st215{fill:url(#SVGID_196_);}
	.st216{fill:url(#SVGID_197_);}
	.st217{fill:url(#SVGID_198_);}
	.st218{fill:url(#SVGID_199_);}
	.st219{fill:#2D2D2D;}
	.st220{opacity:0.2727;}
	.st221{opacity:0.3636;}
	.st222{opacity:0.4545;}
	.st223{opacity:0.5455;}
	.st224{opacity:0.6364;}
	.st225{opacity:0.7273;}
	.st226{opacity:0.8182;}
	.st227{opacity:0.9091;}
	.st228{fill:url(#SVGID_200_);}
	.st229{fill:url(#SVGID_201_);}
	.st230{fill:url(#SVGID_202_);}
	.st231{fill:url(#SVGID_203_);}
	.st232{fill:url(#SVGID_204_);}
	.st233{opacity:0.3;fill:url(#SVGID_205_);}
	.st234{fill:url(#SVGID_206_);}
	.st235{fill:url(#SVGID_207_);}
	.st236{fill:url(#SVGID_208_);}
	.st237{fill:url(#SVGID_209_);}
	.st238{fill:url(#SVGID_210_);}
	.st239{fill:url(#SVGID_211_);}
	.st240{fill:#9F19AB;}
	.st241{fill:#A56EF4;}
	.st242{fill:#F7AA90;}
	.st243{fill:#7C1DC9;}
	.st244{fill:#4B61B8;}
	.st245{fill:#6B24D6;}
	.st246{fill:#4916A1;}
	.st247{fill:#1BB0D4;}
	.st248{fill:#25054D;}
	.st249{fill:url(#SVGID_212_);}
	.st250{fill:url(#SVGID_213_);}
	.st251{fill:url(#SVGID_214_);}
	.st252{fill:url(#SVGID_215_);}
	.st253{fill:url(#SVGID_216_);}
	.st254{fill:#2AF6FF;}
	.st255{opacity:1.875000e-02;}
	.st256{opacity:3.750000e-02;}
	.st257{opacity:5.625000e-02;}
	.st258{opacity:7.500000e-02;}
	.st259{opacity:9.375000e-02;}
	.st260{opacity:0.1125;}
	.st261{opacity:0.1312;}
	.st262{opacity:0.15;}
	.st263{opacity:0.1688;}
	.st264{opacity:0.1875;}
	.st265{opacity:0.2062;}
	.st266{opacity:0.225;}
	.st267{opacity:0.2438;}
	.st268{opacity:0.2625;}
	.st269{opacity:0.2813;}
	.st270{fill:url(#SVGID_217_);}
	.st271{fill:url(#SVGID_218_);}
	.st272{opacity:0.8182;fill:url(#SVGID_219_);}
	.st273{fill:url(#SVGID_220_);}
	.st274{fill:url(#SVGID_221_);}
	.st275{fill:#BCBEC0;}
	.st276{fill:url(#SVGID_222_);}
	.st277{fill:url(#SVGID_223_);}
	.st278{fill:url(#SVGID_224_);}
	.st279{opacity:0.6;fill:url(#SVGID_225_);}
	.st280{fill:url(#SVGID_226_);}
	.st281{fill:url(#SVGID_227_);}
	.st282{fill:url(#SVGID_228_);}
	.st283{fill:url(#SVGID_229_);}
	.st284{fill:url(#SVGID_230_);}
	.st285{fill:#138BBD;}
	.st286{fill:#FFA98C;}
	.st287{fill:url(#SVGID_231_);}
	.st288{fill:url(#SVGID_232_);}
	.st289{fill:url(#SVGID_233_);}
	.st290{fill:url(#SVGID_234_);}
	.st291{fill:url(#SVGID_235_);}
	.st292{fill:url(#SVGID_236_);}
	.st293{fill:url(#SVGID_237_);}
	.st294{fill:url(#SVGID_238_);}
	.st295{fill:url(#SVGID_239_);}
	.st296{fill:url(#SVGID_240_);}
	.st297{fill:url(#SVGID_241_);}
	.st298{fill:url(#SVGID_242_);}
	.st299{fill:url(#SVGID_243_);}
	.st300{fill:url(#SVGID_244_);}
	.st301{fill:url(#SVGID_245_);}
	.st302{fill:url(#SVGID_246_);}
	.st303{fill:url(#SVGID_247_);}
	.st304{fill:url(#SVGID_248_);}
	.st305{fill:url(#SVGID_249_);}
	.st306{fill:url(#SVGID_250_);}
	.st307{fill:url(#SVGID_251_);}
	.st308{fill:url(#SVGID_252_);}
	.st309{fill:url(#SVGID_253_);}
	.st310{fill:url(#SVGID_254_);}
	.st311{fill:url(#SVGID_255_);}
	.st312{fill:url(#SVGID_256_);}
	.st313{fill:url(#SVGID_257_);}
	.st314{fill:url(#SVGID_258_);}
	.st315{fill:url(#SVGID_259_);}
	.st316{fill:url(#SVGID_260_);}
	.st317{fill:url(#SVGID_261_);}
	.st318{fill:url(#SVGID_262_);}
	.st319{fill:url(#SVGID_263_);}
	.st320{fill:url(#SVGID_264_);}
	.st321{fill:url(#SVGID_265_);}
	.st322{fill:url(#SVGID_266_);}
	.st323{fill:url(#SVGID_267_);}
	.st324{fill:url(#SVGID_268_);}
	.st325{fill:url(#SVGID_269_);}
	.st326{fill:url(#SVGID_270_);}
	.st327{fill:url(#SVGID_271_);}
	.st328{fill:url(#SVGID_272_);}
	.st329{fill:url(#SVGID_273_);}
	.st330{fill:url(#SVGID_274_);}
	.st331{fill:url(#SVGID_275_);}
	.st332{fill:url(#SVGID_276_);}
	.st333{fill:url(#SVGID_277_);}
	.st334{fill:url(#SVGID_278_);}
	.st335{fill:url(#SVGID_279_);}
	.st336{fill:url(#SVGID_280_);}
	.st337{fill:url(#SVGID_281_);}
	.st338{fill:url(#SVGID_282_);}
	.st339{fill:url(#SVGID_283_);}
	.st340{fill:url(#SVGID_284_);}
	.st341{fill:url(#SVGID_285_);}
	.st342{fill:url(#SVGID_286_);}
	.st343{fill:url(#SVGID_287_);}
	.st344{fill:url(#SVGID_288_);}
	.st345{fill:url(#SVGID_289_);}
	.st346{fill:url(#SVGID_290_);}
	.st347{fill:url(#SVGID_291_);}
	.st348{fill:url(#SVGID_292_);}
	.st349{fill:url(#SVGID_293_);}
	.st350{fill:url(#SVGID_294_);}
	.st351{fill:url(#SVGID_295_);}
	.st352{fill:url(#SVGID_296_);}
	.st353{fill:url(#SVGID_297_);}
	.st354{fill:url(#SVGID_298_);}
	.st355{fill:url(#SVGID_299_);}
	.st356{fill:url(#SVGID_300_);}
	.st357{fill:url(#SVGID_301_);}
	.st358{fill:url(#SVGID_302_);}
	.st359{fill:url(#SVGID_303_);}
	.st360{fill:url(#SVGID_304_);}
	.st361{fill:url(#SVGID_305_);}
	.st362{fill:url(#SVGID_306_);}
	.st363{fill:url(#SVGID_307_);}
	.st364{fill:url(#SVGID_308_);}
	.st365{fill:url(#SVGID_309_);}
	.st366{fill:url(#SVGID_310_);}
	.st367{fill:url(#SVGID_311_);}
	.st368{fill:url(#SVGID_312_);}
	.st369{fill:url(#SVGID_313_);}
	.st370{fill:url(#SVGID_314_);}
	.st371{fill:url(#SVGID_315_);}
	.st372{fill:url(#SVGID_316_);}
	.st373{fill:url(#SVGID_317_);}
	.st374{fill:url(#SVGID_318_);}
	.st375{fill:url(#SVGID_319_);}
	.st376{opacity:0.3;fill:url(#SVGID_320_);}
	.st377{fill:url(#SVGID_321_);}
	.st378{fill:url(#SVGID_322_);}
	.st379{fill:url(#SVGID_323_);}
	.st380{fill:url(#SVGID_324_);}
	.st381{fill:url(#SVGID_325_);}
	.st382{fill:url(#SVGID_326_);}
	.st383{fill:url(#SVGID_327_);}
	.st384{fill:url(#SVGID_328_);}
	.st385{fill:url(#SVGID_329_);}
	.st386{fill:url(#SVGID_330_);}
	.st387{fill:url(#SVGID_331_);}
	.st388{fill:url(#SVGID_332_);}
	.st389{fill:url(#SVGID_333_);}
	.st390{opacity:0.8182;fill:url(#SVGID_334_);}
	.st391{fill:url(#SVGID_335_);}
	.st392{fill:url(#SVGID_336_);}
	.st393{fill:url(#SVGID_337_);}
	.st394{fill:url(#SVGID_338_);}
	.st395{fill:url(#SVGID_339_);}
	.st396{opacity:0.6;fill:url(#SVGID_340_);}
	.st397{fill:url(#SVGID_341_);}
	.st398{fill:url(#SVGID_342_);}
	.st399{fill:url(#SVGID_343_);}
	.st400{fill:url(#SVGID_344_);}
	.st401{fill:url(#SVGID_345_);}
	.st402{fill:url(#SVGID_346_);}
	.st403{fill:url(#SVGID_347_);}
	.st404{fill:url(#SVGID_348_);}
	.st405{fill:url(#SVGID_349_);}
	.st406{fill:url(#SVGID_350_);}
	.st407{fill:url(#SVGID_351_);}
	.st408{fill:url(#SVGID_352_);}
	.st409{fill:url(#SVGID_353_);}
	.st410{fill:url(#SVGID_354_);}
	.st411{fill:url(#SVGID_355_);}
	.st412{fill:url(#SVGID_356_);}
	.st413{fill:url(#SVGID_357_);}
	.st414{fill:url(#SVGID_358_);}
	.st415{fill:url(#SVGID_359_);}
	.st416{fill:url(#SVGID_360_);}
	.st417{fill:url(#SVGID_361_);}
	.st418{fill:url(#SVGID_362_);}
	.st419{fill:url(#SVGID_363_);}
	.st420{fill:url(#SVGID_364_);}
	.st421{fill:url(#SVGID_365_);}
	.st422{fill:url(#SVGID_366_);}
	.st423{fill:url(#SVGID_367_);}
	.st424{fill:url(#SVGID_368_);}
	.st425{fill:url(#SVGID_369_);}
	.st426{fill:url(#SVGID_370_);}
	.st427{fill:url(#SVGID_371_);}
	.st428{fill:url(#SVGID_372_);}
	.st429{fill:url(#SVGID_373_);}
	.st430{fill:url(#SVGID_374_);}
	.st431{fill:url(#SVGID_375_);}
	.st432{fill:url(#SVGID_376_);}
	.st433{fill:url(#SVGID_377_);}
	.st434{fill:url(#SVGID_378_);}
	.st435{fill:url(#SVGID_379_);}
	.st436{fill:url(#SVGID_380_);}
	.st437{fill:url(#SVGID_381_);}
	.st438{fill:url(#SVGID_382_);}
	.st439{fill:url(#SVGID_383_);}
	.st440{fill:url(#SVGID_384_);}
	.st441{fill:url(#SVGID_385_);}
	.st442{fill:url(#SVGID_386_);}
	.st443{fill:url(#SVGID_387_);}
	.st444{fill:url(#SVGID_388_);}
	.st445{fill:url(#SVGID_389_);}
	.st446{fill:url(#SVGID_390_);}
	.st447{fill:url(#SVGID_391_);}
	.st448{fill:url(#SVGID_392_);}
	.st449{fill:url(#SVGID_393_);}
	.st450{fill:url(#SVGID_394_);}
	.st451{fill:url(#SVGID_395_);}
	.st452{fill:url(#SVGID_396_);}
	.st453{fill:url(#SVGID_397_);}
	.st454{fill:url(#SVGID_398_);}
	.st455{fill:url(#SVGID_399_);}
	.st456{fill:url(#SVGID_400_);}
	.st457{fill:url(#SVGID_401_);}
	.st458{fill:url(#SVGID_402_);}
	.st459{fill:url(#SVGID_403_);}
	.st460{fill:url(#SVGID_404_);}
	.st461{fill:url(#SVGID_405_);}
	.st462{fill:url(#SVGID_406_);}
	.st463{fill:url(#SVGID_407_);}
	.st464{fill:url(#SVGID_408_);}
	.st465{fill:url(#SVGID_409_);}
	.st466{fill:url(#SVGID_410_);}
	.st467{fill:url(#SVGID_411_);}
	.st468{fill:url(#SVGID_412_);}
	.st469{fill:url(#SVGID_413_);}
	.st470{fill:url(#SVGID_414_);}
	.st471{fill:url(#SVGID_415_);}
	.st472{fill:#DB8926;}
	.st473{fill:url(#SVGID_416_);}
	.st474{fill:#E0E0E0;}
	.st475{fill:#1487E3;}
	.st476{fill:#78C2FF;}
	.st477{fill:#FF8761;}
	.st478{opacity:0.76;}
	.st479{fill:#4AAFFF;}
	.st480{fill:#1A598C;}
	.st481{fill:#2273B5;}
	.st482{fill:#3788CC;}
	.st483{fill:#EEA886;}
	.st484{fill:#282828;}
	.st485{fill:#2B3B57;}
	.st486{fill:#353A3D;}
	.st487{fill:#D4D8E8;}
	.st488{fill:#E55353;}
</style>
<g id="BACKGROUND">
</g>
<g id="OBJECTS">
	<g>
		<path class="st472" d="M68.8,304.8H432V48.5c0-7-5.7-12.7-12.7-12.7H81.5c-7,0-12.7,5.7-12.7,12.7V304.8z"/>
	</g>
	<g>
		<linearGradient id="SVGID_2_" gradientUnits="userSpaceOnUse" x1="81.5952" y1="152.4637" x2="418.4969" y2="152.4637">
			<stop  offset="0" style="stop-color:#404B61"/>
			<stop  offset="0.486" style="stop-color:#3C4860"/>
			<stop  offset="1" style="stop-color:#2F3E5C"/>
		</linearGradient>
		<polygon style="fill:url(#SVGID_2_);" points="81.6,255.9 418.5,255.9 418.5,49 81.6,49 		"/>
	</g>
	<polygon class="st5" points="432,266 250.4,266 68.9,266 29.1,414.5 251.6,414.5 471.7,414.5 	"/>
	<path class="st3" d="M82.6,292.1h22.3c0.9,0,1.6,0.7,1.5,1.5l-2.2,9.7c-0.1,0.6-0.7,1-1.5,1H80.1c-1,0-1.7-0.8-1.5-1.5l2.5-9.7
		C81.3,292.5,81.9,292.1,82.6,292.1z"/>
	<polygon class="st3" points="115.2,292.1 132,292.1 129.8,304.3 112.6,304.3 	"/>
	<polygon class="st3" points="140.5,292.1 157.3,292.1 155.6,304.3 138.4,304.3 	"/>
	<polygon class="st3" points="165.7,292.1 182.6,292.1 181.3,304.3 164.1,304.3 	"/>
	<polygon class="st3" points="191,292.1 207.9,292.1 207.1,304.3 189.9,304.3 	"/>
	<polygon class="st3" points="216.3,292.1 233.2,292.1 232.9,304.3 215.7,304.3 	"/>
	<polygon class="st3" points="418.8,292.1 393.5,292.1 396.2,304.3 422,304.3 	"/>
	<polygon class="st3" points="385,292.1 368.2,292.1 370.4,304.3 387.6,304.3 	"/>
	<polygon class="st3" points="359.7,292.1 342.9,292.1 344.6,304.3 361.8,304.3 	"/>
	<polygon class="st3" points="334.4,292.1 317.6,292.1 318.9,304.3 336.1,304.3 	"/>
	<polygon class="st3" points="309.2,292.1 292.3,292.1 293.1,304.3 310.3,304.3 	"/>
	<polygon class="st3" points="283.9,292.1 267,292.1 267.3,304.3 284.5,304.3 	"/>
	<polygon class="st3" points="241.6,292.1 258.5,292.1 258.8,304.3 241.6,304.3 	"/>
	<polygon class="st3" points="75.2,313.4 110.4,313.4 108.4,326.1 72.5,326.1 	"/>
	<polygon class="st3" points="424.3,313.4 380.7,313.4 383.2,326.1 427.6,326.1 	"/>
	<polygon class="st3" points="372,313.4 354.6,313.4 356.6,326.1 374.3,326.1 	"/>
	<polygon class="st3" points="345.9,313.4 328.4,313.4 329.9,326.1 347.7,326.1 	"/>
	<polygon class="st3" points="319.7,313.4 302.3,313.4 303.3,326.1 321.1,326.1 	"/>
	<polygon class="st3" points="293.6,313.4 276.2,313.4 276.7,326.1 294.4,326.1 	"/>
	<polygon class="st3" points="69.9,335.9 106,335.9 103.3,348.5 66.6,348.5 	"/>
	<polygon class="st3" points="115,335.9 133,335.9 130.8,348.5 112.5,348.5 	"/>
	<polygon class="st3" points="142,335.9 160,335.9 277.1,335.9 277.6,348.5 140,348.5 	"/>
	<polygon class="st3" points="286.1,335.9 304.1,335.9 305.1,348.5 286.8,348.5 	"/>
	<polygon class="st3" points="313.1,335.9 331.1,335.9 332.6,348.5 314.3,348.5 	"/>
	<polygon class="st3" points="340.1,335.9 358.1,335.9 360.1,348.5 341.8,348.5 	"/>
	<polygon class="st3" points="367.2,335.9 385.2,335.9 387.6,348.5 369.3,348.5 	"/>
	<polygon class="st3" points="394.2,335.9 430.2,335.9 433.5,348.5 396.8,348.5 	"/>
	<polygon class="st3" points="267.5,313.4 250.2,313.4 250.2,326.1 267.8,326.1 	"/>
	<polygon class="st3" points="241.4,313.4 223.9,313.4 223.4,326.1 241.2,326.1 	"/>
	<polygon class="st3" points="215.2,313.4 197.8,313.4 196.8,326.1 214.6,326.1 	"/>
	<polygon class="st3" points="189.1,313.4 171.7,313.4 170.2,326.1 187.9,326.1 	"/>
	<polygon class="st3" points="163,313.4 145.5,313.4 143.5,326.1 161.3,326.1 	"/>
	<polygon class="st3" points="136.8,313.4 119.4,313.4 116.9,326.1 134.7,326.1 	"/>
	<polygon class="st3" points="83.4,284.4 86.3,273.4 94.5,273.4 91.8,284.4 	"/>
	<polygon class="st3" points="102.7,273.4 119.1,273.4 116.8,284.4 100.1,284.4 	"/>
	<polygon class="st3" points="127.2,273.4 143.6,273.4 141.8,284.4 125.1,284.4 	"/>
	<polygon class="st3" points="151.8,273.4 168.2,273.4 166.8,284.4 150.1,284.4 	"/>
	<polygon class="st3" points="176.4,273.4 192.8,273.4 191.7,284.4 175.1,284.4 	"/>
	<polygon class="st3" points="200.9,273.4 217.3,273.4 216.7,284.4 200.1,284.4 	"/>
	<polygon class="st3" points="225.5,273.4 241.9,273.4 241.7,284.4 225.1,284.4 	"/>
	<polygon class="st3" points="250.1,273.4 266.4,273.4 266.7,284.4 250.1,284.4 	"/>
	<polygon class="st3" points="274.6,273.4 291,273.4 291.7,284.4 275.1,284.4 	"/>
	<polygon class="st3" points="299.2,273.4 315.6,273.4 316.7,284.4 300.1,284.4 	"/>
	<polygon class="st3" points="323.8,273.4 340.1,273.4 341.7,284.4 325.1,284.4 	"/>
	<polygon class="st3" points="348.3,273.4 364.7,273.4 366.7,284.4 350,284.4 	"/>
	<polygon class="st3" points="372.9,273.4 389.3,273.4 391.7,284.4 375,284.4 	"/>
	<polygon class="st3" points="397.5,273.4 413.8,273.4 416.7,284.4 400,284.4 	"/>
	<path class="st4" d="M460.1,426.1H40.7c-6.4,0-11.6-5.2-11.6-11.6l0,0h442.5l0,0C471.7,420.9,466.5,426.1,460.1,426.1z"/>
	<path class="st7" d="M301.9,366.5c-0.4-2.6-2.7-4.5-5.3-4.5h-46.1h-46.1c-2.6,0-4.9,1.9-5.3,4.5l-5.8,34.9c-0.5,3.3,2,6.3,5.3,6.3
		h51.9h51.9c3.3,0,5.9-3,5.3-6.3L301.9,366.5z"/>
	<g>
		<g>
			<rect x="104.3" y="66.5" class="st474" width="37.5" height="3.8"/>
		</g>
		<g>
			<rect x="152.4" y="95.5" class="st474" width="27.1" height="3.8"/>
		</g>
		<g>
			<rect x="183.7" y="95.5" class="st475" width="18" height="3.8"/>
		</g>
		<g>
			<rect x="104.8" y="168.2" class="st475" width="18" height="3.8"/>
		</g>
		<g>
			<rect x="205.2" y="95.5" class="st474" width="43.4" height="3.8"/>
		</g>
		<g>
			<rect x="104.8" y="153.7" class="st474" width="27.9" height="3.8"/>
		</g>
		<g>
			<rect x="143.7" y="182.7" class="st474" width="17" height="3.8"/>
		</g>
		<g>
			<rect x="104.8" y="182.7" class="st475" width="33.7" height="3.8"/>
		</g>
		<g>
			<rect x="104.8" y="197.2" class="st474" width="18.6" height="3.8"/>
		</g>
		<g>
			<rect x="149.2" y="66.5" class="st476" width="26.6" height="3.8"/>
		</g>
		<g>
			<rect x="149.2" y="109.9" class="st475" width="26.6" height="3.8"/>
		</g>
		<g>
			<rect x="135.9" y="124.4" class="st474" width="11.4" height="3.8"/>
		</g>
		<g>
			<rect x="124.5" y="139.1" class="st476" width="25.6" height="3.8"/>
		</g>
		<g>
			<rect x="153.9" y="139.1" class="st475" width="35.3" height="3.8"/>
		</g>
		<g>
			<rect x="104.8" y="124.5" class="st475" width="26.6" height="3.8"/>
		</g>
		<g>
			<rect x="104.8" y="139.1" class="st475" width="15.8" height="3.8"/>
		</g>
		<g>
			<rect x="152.6" y="124.5" class="st477" width="14.9" height="3.8"/>
		</g>
		<g>
			<rect x="105.2" y="211.7" class="st477" width="14.9" height="3.8"/>
		</g>
		<g>
			<rect x="104.7" y="95.5" class="st476" width="26.6" height="3.8"/>
		</g>
		<g>
			<rect x="128.2" y="168.2" class="st476" width="26.6" height="3.8"/>
		</g>
		<g>
			<rect x="128.6" y="197.2" class="st476" width="26.6" height="3.8"/>
		</g>
		<g>
			<rect x="175.9" y="197.2" class="st476" width="26.6" height="3.8"/>
		</g>
		<g>
			<rect x="104.7" y="109.9" class="st476" width="38" height="3.8"/>
		</g>
		<g>
			<rect x="282.6" y="66.5" class="st476" width="26.6" height="3.8"/>
		</g>
		<g>
			<rect x="187.7" y="211.7" class="st476" width="26.6" height="3.8"/>
		</g>
		<g>
			<rect x="317.6" y="66.5" class="st476" width="17.8" height="3.8"/>
		</g>
		<g>
			<rect x="377.9" y="81" class="st476" width="17.8" height="3.8"/>
		</g>
		<g>
			<rect x="183" y="66.5" class="st475" width="33.9" height="3.8"/>
		</g>
		<g>
			<rect x="315.3" y="81" class="st475" width="33.9" height="3.8"/>
		</g>
		<g>
			<rect x="273.6" y="95.5" class="st475" width="33.9" height="3.8"/>
		</g>
		<g>
			<rect x="229.4" y="109.9" class="st475" width="33.9" height="3.8"/>
		</g>
		<g>
			<rect x="311.8" y="95.5" class="st476" width="24.1" height="3.8"/>
		</g>
		<g>
			<rect x="242" y="66.5" class="st477" width="33.9" height="3.8"/>
		</g>
		<g>
			<rect x="203.3" y="109.9" class="st477" width="19.9" height="3.8"/>
		</g>
		<g>
			<rect x="187.7" y="168.5" class="st477" width="19.9" height="3.8"/>
		</g>
		<g>
			<rect x="223.2" y="66.5" class="st474" width="12.4" height="3.8"/>
		</g>
		<g>
			<rect x="183" y="109.9" class="st474" width="12.4" height="3.8"/>
		</g>
		<g>
			<rect x="357.4" y="81" class="st474" width="12.4" height="3.8"/>
		</g>
		<g>
			<rect x="104.3" y="81" class="st475" width="19.4" height="3.8"/>
		</g>
		<g>
			<rect x="156.2" y="153.8" class="st475" width="15.3" height="3.8"/>
		</g>
		<g>
			<rect x="128.6" y="81" class="st475" width="6.3" height="3.8"/>
		</g>
		<g>
			<rect x="257.4" y="81" class="st474" width="51.9" height="3.8"/>
		</g>
		<g>
			<rect x="207.6" y="197.2" class="st474" width="51.9" height="3.8"/>
		</g>
		<g>
			<rect x="139.4" y="81" class="st477" width="6.4" height="3.8"/>
		</g>
		<g>
			<rect x="235.6" y="81" class="st475" width="17" height="3.8"/>
		</g>
		<g>
			<rect x="252.6" y="95.5" class="st477" width="17" height="3.8"/>
		</g>
		<g>
			<rect x="165.3" y="211.7" class="st477" width="17" height="3.8"/>
		</g>
		<g>
			<rect x="195" y="81" class="st475" width="36.1" height="3.8"/>
		</g>
		<g>
			<rect x="161.4" y="168.5" class="st475" width="21.1" height="3.8"/>
		</g>
		<g>
			<rect x="160.1" y="197.2" class="st475" width="10.6" height="3.8"/>
		</g>
		<g>
			<rect x="177.5" y="81" class="st476" width="12.4" height="3.8"/>
		</g>
		<g>
			<rect x="135.7" y="95.5" class="st477" width="12.4" height="3.8"/>
		</g>
		<g>
			<rect x="138.1" y="153.8" class="st477" width="12.4" height="3.8"/>
		</g>
		<g>
			<rect x="151.1" y="81" class="st475" width="21.6" height="3.8"/>
		</g>
	</g>
	<g class="st478">
		<path class="st3" d="M468.1,234.4h-157c-3,0-5.4-2.4-5.4-5.4V120.1c0-3,2.4-5.4,5.4-5.4h157c3,0,5.4,2.4,5.4,5.4V229
			C473.5,232,471.1,234.4,468.1,234.4z"/>
	</g>
	<g>
		<g>
			<path class="st479" d="M455.4,184.6h-27c-1.1,0-2.1-0.9-2.1-2.1v-4.2c0-1.1,0.9-2.1,2.1-2.1h27c1.1,0,2.1,0.9,2.1,2.1v4.2
				C457.4,183.7,456.5,184.6,455.4,184.6z"/>
		</g>
	</g>
	<g>
		<g>
			<path class="st479" d="M455.4,200.2h-27c-1.1,0-2.1-0.9-2.1-2.1v-4.2c0-1.1,0.9-2.1,2.1-2.1h27c1.1,0,2.1,0.9,2.1,2.1v4.2
				C457.4,199.3,456.5,200.2,455.4,200.2z"/>
		</g>
	</g>
	<g>
		<g>
			<path class="st479" d="M455.4,215.8h-27c-1.1,0-2.1-0.9-2.1-2.1v-4.2c0-1.1,0.9-2.1,2.1-2.1h27c1.1,0,2.1,0.9,2.1,2.1v4.2
				C457.4,214.8,456.5,215.8,455.4,215.8z"/>
		</g>
	</g>
	<g>
		<g>
			<g>
				<path class="st479" d="M411.2,157.8c-6.9-19.4-25.5-31.3-45-30.7c-4.7,0.1-9.5,1-14.2,2.7c-14.2,5.1-24.4,16.4-28.6,29.8
					c-2.9,9.3-2.9,19.5,0.6,29.4c0.4,1,0.7,1.9,1.1,2.9c1.9,4.3,4.3,8.1,7.2,11.5c12.1,14.2,32.2,20.3,50.9,13.6
					C407.3,208.4,419.8,181.9,411.2,157.8z M379.3,206.1c-14,5-29.1,0.5-38.1-10.2c-2.2-2.5-4-5.4-5.4-8.6c-0.3-0.7-0.6-1.4-0.9-2.2
					c-2.6-7.4-2.6-15.1-0.5-22c3.1-10,10.8-18.5,21.5-22.3c3.5-1.3,7.1-1.9,10.7-2c14.6-0.4,28.5,8.5,33.7,23
					C406.7,179.7,397.3,199.6,379.3,206.1z"/>
			</g>
		</g>
		<g>
			<g>
				<path class="st480" d="M334.4,163l-11.1-3.5c4.2-13.4,14.4-24.7,28.6-29.8c4.7-1.7,9.5-2.6,14.2-2.7l0.3,11.6
					c-3.5,0.1-7.1,0.8-10.7,2C345.2,144.5,337.6,153,334.4,163z"/>
			</g>
		</g>
		<g>
			<g>
				<path class="st481" d="M335.7,187.2l-10.6,4.6c-0.4-0.9-0.8-1.9-1.1-2.9c-3.5-9.9-3.5-20.1-0.6-29.4l11.1,3.5
					c-2.2,7-2.2,14.6,0.5,22C335.2,185.8,335.4,186.5,335.7,187.2z"/>
			</g>
		</g>
		<g>
			<g>
				<path class="st482" d="M332.3,203.4c-2.9-3.4-5.3-7.3-7.2-11.5l10.6-4.6c1.4,3.2,3.2,6.1,5.4,8.6L332.3,203.4z"/>
			</g>
		</g>
	</g>
	<g>
		<g>
			<g>
				<path class="st483" d="M383,200.8c0,0-2.2-3.9,1.3-14.4c3.4-10.2,15.4-9.3,19.1-2.7c3.8,6.5,2.5,10.6-3.1,17.9
					C394.9,208.9,385.4,204.2,383,200.8z"/>
			</g>
		</g>
		<g>
			<g>
				<path class="st483" d="M410.7,381.8c0,0,0.6,4.3,0.7,5c0.1,0.6,6.6-0.4,6.6-0.4l0.5-5.1C418.4,381.3,411.5,381.2,410.7,381.8z"
					/>
			</g>
		</g>
		<g>
			<g>
				<path class="st7" d="M411.3,386.3c0,0-2.1,2.6-4,3.7c-2,1.1-5.1,1.6-6.3,2.8c-0.8,0.8-3.1,4.5,5.2,4.4
					c8.3-0.1,12.2,0.5,13.1-0.9c0.9-1.4-1.3-10.3-1.3-10.3S415.9,386.5,411.3,386.3z"/>
			</g>
		</g>
		<g>
			<g>
				<path class="st483" d="M365.8,381.8c0,0,0.6,4.3,0.7,5c0.1,0.6,6.6-0.4,6.6-0.4l0.5-5.1C373.6,381.3,366.6,381.2,365.8,381.8z"
					/>
			</g>
		</g>
		<g>
			<g>
				<path class="st7" d="M366.4,386.3c0,0-2.1,2.6-4,3.7c-2,1.1-9.3,2.1-10.5,3.2c-0.8,0.8-2.3,4.3,9.3,3.9
					c8.2-0.2,12.2,0.5,13.1-0.9c0.9-1.4-1.3-10.3-1.3-10.3S370.5,386.4,366.4,386.3z"/>
			</g>
		</g>
		<g>
			<g>
				<path class="st484" d="M408.5,274.3c0,0,3.3,10.3,2.9,19.2c-0.4,8.9,1.7,18.6,2.6,27.9c1,10.4,5,34.9,5.1,40.5
					c0.1,5.5-0.6,23.3-0.6,23.3l-8.1,0.2c0,0-6.8-42.9-8.5-47.3c-1.8-4.4-10.4-35.6-10.7-39.1C391,295.5,408.5,274.3,408.5,274.3z"
					/>
			</g>
		</g>
		<g>
			<g>
				<path class="st7" d="M375.1,273.2c0,0-4.9,27.3-5.5,32.8c-0.6,5.4-1,26.4-1.3,29.8c-0.3,3.4-1.9,44.6-3.5,49.6h9
					c0,0,9.2-29.9,9.2-44.1c0-14.2,6.1-30.8,10-40.1c3.9-9.3,13-9.6,15.4-26.9C408.5,274.3,378.4,267.7,375.1,273.2z"/>
			</g>
		</g>
		<g>
			<g>
				<path class="st483" d="M386.3,203.6c0,0,1,2.9,0,5.1c-1,2.1,12.9,0.8,12.9,0.8s-0.6-4.3,1.2-7.9
					C402.2,198,386.3,203.6,386.3,203.6z"/>
			</g>
		</g>
		<g>
			<g>
				<path class="st485" d="M409.2,276.5c0,0-5,5.2-34.5-0.8l0.4-2.5l33.5,1.3L409.2,276.5z"/>
			</g>
		</g>
		<g>
			<g>
				<path class="st483" d="M384.2,209.3c0,0-5.2,0.5-6.6,0.8c-1.5,0.3-11.4-1.8-13.4-2c-2-0.2-10.7-6.1-11-6.8
					c-0.3-0.7-5.3-13.3-5.6-16.1c-0.3-2.7-4.9-1.3-4.5,0.6c0.7,3.5,1.7,12.1,2.2,14.6c0.6,2.7,2.1,8.7,2.9,9.5
					c0.8,0.7,8.6,6.7,16.3,9.2c7.6,2.5,13.4,6.2,13.4,6.2h37.7c0,0,14.6-20.9,15-24.1c0.3-3.2-10.2-24.1-12.3-26.7
					c-2.1-2.6-5.1,0.9-5.1,0.9s6.3,18.5,7.1,21.1c0.8,2.6-7.3,14.2-9.6,14.2c-2.2,0-8-0.7-10.6-0.8c-2.6-0.1-5.3-1.2-5.3-1.2
					L384.2,209.3z"/>
			</g>
		</g>
		<g>
			<g>
				<path class="st5" d="M368,223.3c0,0,4.6,3.1,5,8.3c0.4,5.3,2.1,13.6,2.9,16.4c0.8,2.8-0.7,23.4-0.9,24.9
					c-0.2,1.5,29.1,5,33.6,1.5c0,0,1.3-19.2,1.8-24.7c0.5-5.5,3-18.7,3.9-20.5c0.8-1.8,11-16.1,11.5-18c0,0-5.3-8.4-9.1-8.5
					c0,0-6,7-8,7.4c-2,0.3-14-1.9-14-1.9c0,0-1.3,1.8-8.3-0.3c0,0-8.3,0.9-9.7,1.1c-1.6,0.2-13-1.4-13-1.4s-4.6,7.7-3.8,11.6
					L368,223.3z"/>
			</g>
		</g>
		<g>
			<g>
				<path class="st483" d="M347.9,186.9c0,0-1-4.9,0.2-6.3c0.7-0.8,2.4-2.9,2.6-3.2c0.2-0.3,2-1.4,2-1.9c0-0.5-1.8-1.1-3.3,0.3
					c-1.5,1.4-2.5,1.7-3.1,1.6c-0.6-0.2-1.5-5.3-1.6-6.6c-0.1-1.3-0.6-4.6-1.4-4.4c-0.8,0.2-0.8,1.7-0.8,1.7s-0.9-2.6-1.5-2.1
					c-0.6,0.5-0.5,1.7-0.5,1.7s-1.2-1.4-1.5-0.4c-0.3,1,0,2,0,2s-1.2-0.7-1.3,1c-0.1,1.6,0.3,6.4,1.2,8.1c0.9,1.7,4,6.2,4.4,7.9
					C343.6,188.1,347.9,186.9,347.9,186.9z"/>
			</g>
		</g>
		<g>
			<g>
				<path class="st483" d="M414.1,178.3c0,0-3.5-5.9-4.7-6.4c-1.2-0.5-2.9-0.8-4.3-1.9c-1.5-1.1-3.4-1.9-3.3-2.3
					c0.1-0.4,1.8-0.2,3.7,0.6c1.9,0.8,2.7,0.4,2.8,0c0.2-0.4-1-3.4-1.6-4.1c-0.6-0.7-4.6-4.7-3.9-5.3c0.7-0.6,3.3,1.6,3.7,2.1
					c0,0-2.1-4.3-1.3-4.6c0.8-0.2,2.3,1.3,2.3,1.3s-0.2-3.7,3.8,2.3c0,0-0.8-2,0.4-1.3c1.2,0.7,2.4,4.4,2.8,6.3
					c0.4,1.9,2.1,7.9,3.6,9.4C419.7,175.9,414.1,178.3,414.1,178.3z"/>
			</g>
		</g>
		<g>
			<g>
				<path class="st486" d="M400.4,201.6c0,0-1.8,0.2-5.8-1.2c-3.9-1.4-4.2-8.2-5.1-7.4c-1.7,1.7-3.4,0.5-4-0.5c0,0,1.9-2.5,1-3.7
					c-0.9-1.2-2.3-2.1-2.3-2.1s2.8-13.3,15.3-7.2C414.3,186.5,400.4,201.6,400.4,201.6z"/>
			</g>
		</g>
		<g>
			<g>
				<path class="st487" d="M386.3,208.7l0.4-1.9c0,0,8-0.2,12.4,0.5l0.5,2.3C399.6,209.5,394,212.1,386.3,208.7z"/>
			</g>
		</g>
		<g>
			<g>
				<path class="st483" d="M388.3,191.3c0.7-1.2,3.4-2,3.7,1.4c0.2,2.7-4.8,5.6-4.9,3.1C387.1,193.3,387.8,192.1,388.3,191.3z"/>
			</g>
		</g>
		<g>
			<g>
				<path class="st488" d="M347.7,185.8c0,0-2.9,0.1-4.3,1.3c0,0-0.1,0.8,0.2,1.4c0,0,2.5-1.2,4.4-1.4
					C348.1,187.2,348,186.1,347.7,185.8z"/>
			</g>
		</g>
		<g>
			<g>
				
					<ellipse transform="matrix(0.389 -0.9213 0.9213 0.389 38.8047 432.4767)" class="st486" cx="345.4" cy="187" rx="1.2" ry="1.2"/>
			</g>
		</g>
	</g>
</g>
</svg>
